<svg xmlns="http://www.w3.org/2000/svg" width="2560" height="1440"><path d="M129,-213L582,-172L797,-183Z" fill="#fedad6" stroke="#fedad6" stroke-width="1.51"/><path d="M129,-213L797,-183L1115,-211Z" fill="#fed3d4" stroke="#fed3d4" stroke-width="1.51"/><path d="M129,-213L1115,-211L1335,-224Z" fill="#fecbd2" stroke="#fecbd2" stroke-width="1.51"/><path d="M-227,-216L129,-213L1335,-224Z" fill="#fedfdb" stroke="#fedfdb" stroke-width="1.51"/><path d="M586,1637L31,1635L1559,1672Z" fill="#a75b94" stroke="#a75b94" stroke-width="1.51"/><path d="M932,1630L586,1637L1559,1672Z" fill="#a64a8e" stroke="#a64a8e" stroke-width="1.51"/><path d="M1335,-224L1604,-180L1924,-206Z" fill="#f59fc2" stroke="#f59fc2" stroke-width="1.51"/><path d="M1924,-206L1987,-205L2205,-209Z" fill="#dd8eb6" stroke="#dd8eb6" stroke-width="1.51"/><path d="M1335,-224L1924,-206L2205,-209Z" fill="#ea97be" stroke="#ea97be" stroke-width="1.51"/><path d="M2137,1606L1559,1672L2494,1635Z" fill="#820076" stroke="#820076" stroke-width="1.51"/><path d="M1335,-224L2205,-209L2516,-219Z" fill="#df8fb7" stroke="#df8fb7" stroke-width="1.51"/><path d="M2205,-209L2337,-188L2516,-219Z" fill="#c686b3" stroke="#c686b3" stroke-width="1.51"/><path d="M2494,1635L1559,1672L2593,1641Z" fill="#780074" stroke="#780074" stroke-width="1.51"/><path d="M2746,-53L2676,136L2780,144Z" fill="#ab70a0" stroke="#ab70a0" stroke-width="1.51"/><path d="M2732,-200L2746,-53L2780,144Z" fill="#aa75a6" stroke="#aa75a6" stroke-width="1.51"/><path d="M2593,1063L2752,1196L2791,1001Z" fill="#900d7d" stroke="#900d7d" stroke-width="1.51"/><path d="M2791,744L2730,825L2791,1001Z" fill="#9e2784" stroke="#9e2784" stroke-width="1.51"/><path d="M2752,1196L2788,1330L2791,1001Z" fill="#840277" stroke="#840277" stroke-width="1.51"/><path d="M2740,255L2614,468L2824,441Z" fill="#aa5b94" stroke="#aa5b94" stroke-width="1.51"/><path d="M2614,468L2684,562L2824,441Z" fill="#ab5392" stroke="#ab5392" stroke-width="1.51"/><path d="M2684,562L2774,590L2824,441Z" fill="#a74d8f" stroke="#a74d8f" stroke-width="1.51"/><path d="M2780,144L2740,255L2824,441Z" fill="#a86395" stroke="#a86395" stroke-width="1.51"/><path d="M2774,590L2791,744L2824,441Z" fill="#a4468c" stroke="#a4468c" stroke-width="1.51"/><path d="M2791,744L2791,1001L2824,441Z" fill="#a33487" stroke="#a33487" stroke-width="1.51"/><path d="M2791,1001L2788,1330L2824,441Z" fill="#981e83" stroke="#981e83" stroke-width="1.51"/><path d="M2589,304L2614,468L2740,255Z" fill="#af6096" stroke="#af6096" stroke-width="1.51"/><path d="M2620,11L2676,136L2746,-53Z" fill="#af73a4" stroke="#af73a4" stroke-width="1.51"/><path d="M2593,1063L2601,1170L2752,1196Z" fill="#8f077b" stroke="#8f077b" stroke-width="1.51"/><path d="M2684,562L2617,664L2774,590Z" fill="#ab468d" stroke="#ab468d" stroke-width="1.51"/><path d="M2676,136L2740,255L2780,144Z" fill="#ab6a9a" stroke="#ab6a9a" stroke-width="1.51"/><path d="M2614,1458L2750,1601L2783,1461Z" fill="#650072" stroke="#650072" stroke-width="1.51"/><path d="M2752,1196L2590,1278L2788,1330Z" fill="#7f0076" stroke="#7f0076" stroke-width="1.51"/><path d="M2614,1458L2783,1461L2788,1330Z" fill="#6e0073" stroke="#6e0073" stroke-width="1.51"/><path d="M2590,1278L2614,1458L2788,1330Z" fill="#780075" stroke="#780075" stroke-width="1.51"/><path d="M2774,590L2617,664L2791,744Z" fill="#a83d8a" stroke="#a83d8a" stroke-width="1.51"/><path d="M2617,664L2730,825L2791,744Z" fill="#a73488" stroke="#a73488" stroke-width="1.51"/><path d="M2730,825L2583,882L2791,1001Z" fill="#a02285" stroke="#a02285" stroke-width="1.51"/><path d="M2583,882L2593,1063L2791,1001Z" fill="#9d1883" stroke="#9d1883" stroke-width="1.51"/><path d="M1861,1586L1559,1672L2137,1606Z" fill="#900e7d" stroke="#900e7d" stroke-width="1.51"/><path d="M2732,-200L2598,-218L2746,-53Z" fill="#af7dac" stroke="#af7dac" stroke-width="1.51"/><path d="M2598,-218L2620,11L2746,-53Z" fill="#b17aaa" stroke="#b17aaa" stroke-width="1.51"/><path d="M2614,1458L2593,1641L2750,1601Z" fill="#630071" stroke="#630071" stroke-width="1.51"/><path d="M2601,1170L2590,1278L2752,1196Z" fill="#880078" stroke="#880078" stroke-width="1.51"/><path d="M1604,-180L1738,-179L1924,-206Z" fill="#ee99bf" stroke="#ee99bf" stroke-width="1.51"/><path d="M2617,664L2583,882L2730,825Z" fill="#a93088" stroke="#a93088" stroke-width="1.51"/><path d="M2676,136L2589,304L2740,255Z" fill="#af6998" stroke="#af6998" stroke-width="1.51"/><path d="M2531,714L2583,882L2617,664Z" fill="#af358a" stroke="#af358a" stroke-width="1.51"/><path d="M2620,11L2512,142L2676,136Z" fill="#b472a1" stroke="#b472a1" stroke-width="1.51"/><path d="M2512,142L2589,304L2676,136Z" fill="#b46c9c" stroke="#b46c9c" stroke-width="1.51"/><path d="M2614,468L2617,664L2684,562Z" fill="#ae4b90" stroke="#ae4b90" stroke-width="1.51"/><path d="M2516,-219L2455,-23L2598,-218Z" fill="#ba80af" stroke="#ba80af" stroke-width="1.51"/><path d="M2614,468L2464,605L2617,664Z" fill="#b24b91" stroke="#b24b91" stroke-width="1.51"/><path d="M2598,-218L2455,-23L2620,11Z" fill="#b77cab" stroke="#b77cab" stroke-width="1.51"/><path d="M2512,142L2473,304L2589,304Z" fill="#b86a9a" stroke="#b86a9a" stroke-width="1.51"/><path d="M2480,1288L2527,1463L2590,1278Z" fill="#810078" stroke="#810078" stroke-width="1.51"/><path d="M2527,1463L2494,1635L2593,1641Z" fill="#690072" stroke="#690072" stroke-width="1.51"/><path d="M2583,882L2434,1027L2593,1063Z" fill="#a41985" stroke="#a41985" stroke-width="1.51"/><path d="M2589,304L2473,304L2614,468Z" fill="#b56197" stroke="#b56197" stroke-width="1.51"/><path d="M2473,304L2434,450L2614,468Z" fill="#b75e97" stroke="#b75e97" stroke-width="1.51"/><path d="M2434,450L2464,605L2614,468Z" fill="#b75594" stroke="#b75594" stroke-width="1.51"/><path d="M2527,1463L2593,1641L2614,1458Z" fill="#6c0073" stroke="#6c0073" stroke-width="1.51"/><path d="M2590,1278L2527,1463L2614,1458Z" fill="#790076" stroke="#790076" stroke-width="1.51"/><path d="M2464,605L2531,714L2617,664Z" fill="#b4418d" stroke="#b4418d" stroke-width="1.51"/><path d="M2455,-23L2512,142L2620,11Z" fill="#b976a5" stroke="#b976a5" stroke-width="1.51"/><path d="M2531,714L2428,841L2583,882Z" fill="#b03089" stroke="#b03089" stroke-width="1.51"/><path d="M2480,1288L2590,1278L2601,1170Z" fill="#8a0079" stroke="#8a0079" stroke-width="1.51"/><path d="M2593,1063L2441,1137L2601,1170Z" fill="#970b7e" stroke="#970b7e" stroke-width="1.51"/><path d="M2441,1137L2480,1288L2601,1170Z" fill="#92027a" stroke="#92027a" stroke-width="1.51"/><path d="M2345,1564L2137,1606L2494,1635Z" fill="#740074" stroke="#740074" stroke-width="1.51"/><path d="M2428,841L2434,1027L2583,882Z" fill="#ac2388" stroke="#ac2388" stroke-width="1.51"/><path d="M2434,1027L2441,1137L2593,1063Z" fill="#9f1181" stroke="#9f1181" stroke-width="1.51"/><path d="M2455,-23L2362,135L2512,142Z" fill="#be76a4" stroke="#be76a4" stroke-width="1.51"/><path d="M2380,277L2473,304L2512,142Z" fill="#bc6d9c" stroke="#bc6d9c" stroke-width="1.51"/><path d="M2337,-188L2455,-23L2516,-219Z" fill="#c081af" stroke="#c081af" stroke-width="1.51"/><path d="M2357,1311L2286,1462L2527,1463Z" fill="#830178" stroke="#830178" stroke-width="1.51"/><path d="M2480,1288L2357,1311L2527,1463Z" fill="#850179" stroke="#850179" stroke-width="1.51"/><path d="M2345,1564L2494,1635L2527,1463Z" fill="#710075" stroke="#710075" stroke-width="1.51"/><path d="M2464,605L2307,668L2531,714Z" fill="#ba438f" stroke="#ba438f" stroke-width="1.51"/><path d="M2307,668L2428,841L2531,714Z" fill="#b9398c" stroke="#b9398c" stroke-width="1.51"/><path d="M2362,135L2380,277L2512,142Z" fill="#bf719f" stroke="#bf719f" stroke-width="1.51"/><path d="M2286,1462L2345,1564L2527,1463Z" fill="#7b0077" stroke="#7b0077" stroke-width="1.51"/><path d="M2441,1137L2367,1202L2480,1288Z" fill="#96017b" stroke="#96017b" stroke-width="1.51"/><path d="M2434,450L2381,592L2464,605Z" fill="#bc5294" stroke="#bc5294" stroke-width="1.51"/><path d="M353,1619L31,1635L586,1637Z" fill="#aa6d9d" stroke="#aa6d9d" stroke-width="1.51"/><path d="M2428,841L2349,851L2434,1027Z" fill="#b22589" stroke="#b22589" stroke-width="1.51"/><path d="M2381,592L2307,668L2464,605Z" fill="#be4991" stroke="#be4991" stroke-width="1.51"/><path d="M2380,277L2434,450L2473,304Z" fill="#bd659a" stroke="#bd659a" stroke-width="1.51"/><path d="M2307,668L2349,851L2428,841Z" fill="#bb348c" stroke="#bb348c" stroke-width="1.51"/><path d="M2309,-14L2362,135L2455,-23Z" fill="#c37aa8" stroke="#c37aa8" stroke-width="1.51"/><path d="M2337,-188L2309,-14L2455,-23Z" fill="#c580ad" stroke="#c580ad" stroke-width="1.51"/><path d="M2367,1202L2357,1311L2480,1288Z" fill="#92017a" stroke="#92017a" stroke-width="1.51"/><path d="M2349,851L2306,1014L2434,1027Z" fill="#b21d88" stroke="#b21d88" stroke-width="1.51"/><path d="M2380,277L2314,458L2434,450Z" fill="#c06299" stroke="#c06299" stroke-width="1.51"/><path d="M2314,458L2381,592L2434,450Z" fill="#bf5896" stroke="#bf5896" stroke-width="1.51"/><path d="M2434,1027L2306,1014L2441,1137Z" fill="#a61483" stroke="#a61483" stroke-width="1.51"/><path d="M2306,1014L2367,1202L2441,1137Z" fill="#a20d80" stroke="#a20d80" stroke-width="1.51"/><path d="M2017,1575L1861,1586L2137,1606Z" fill="#8a0379" stroke="#8a0379" stroke-width="1.51"/><path d="M2235,-44L2309,-14L2337,-188Z" fill="#ca82ae" stroke="#ca82ae" stroke-width="1.51"/><path d="M2218,905L2306,1014L2349,851Z" fill="#b92489" stroke="#b92489" stroke-width="1.51"/><path d="M2307,668L2235,725L2349,851Z" fill="#c13a8d" stroke="#c13a8d" stroke-width="1.51"/><path d="M2233,1204L2357,1311L2367,1202Z" fill="#9a017c" stroke="#9a017c" stroke-width="1.51"/><path d="M2306,1014L2233,1204L2367,1202Z" fill="#a50b80" stroke="#a50b80" stroke-width="1.51"/><path d="M2196,386L2314,458L2380,277Z" fill="#c6659a" stroke="#c6659a" stroke-width="1.51"/><path d="M2362,135L2141,261L2380,277Z" fill="#c7719e" stroke="#c7719e" stroke-width="1.51"/><path d="M2314,458L2307,668L2381,592Z" fill="#c25093" stroke="#c25093" stroke-width="1.51"/><path d="M2141,261L2196,386L2380,277Z" fill="#cb6b9c" stroke="#cb6b9c" stroke-width="1.51"/><path d="M2131,563L2307,668L2314,458Z" fill="#c75395" stroke="#c75395" stroke-width="1.51"/><path d="M2178,1350L2286,1462L2357,1311Z" fill="#8f017a" stroke="#8f017a" stroke-width="1.51"/><path d="M2309,-14L2186,73L2362,135Z" fill="#c97ba7" stroke="#c97ba7" stroke-width="1.51"/><path d="M2186,73L2141,261L2362,135Z" fill="#cd76a2" stroke="#cd76a2" stroke-width="1.51"/><path d="M2233,1204L2178,1350L2357,1311Z" fill="#99007c" stroke="#99007c" stroke-width="1.51"/><path d="M2205,-209L2235,-44L2337,-188Z" fill="#cd86b1" stroke="#cd86b1" stroke-width="1.51"/><path d="M2286,1462L2221,1506L2345,1564Z" fill="#800077" stroke="#800077" stroke-width="1.51"/><path d="M2221,1506L2137,1606L2345,1564Z" fill="#7f0076" stroke="#7f0076" stroke-width="1.51"/><path d="M2235,725L2218,905L2349,851Z" fill="#c0318c" stroke="#c0318c" stroke-width="1.51"/><path d="M2143,1015L2233,1204L2306,1014Z" fill="#b01383" stroke="#b01383" stroke-width="1.51"/><path d="M2131,563L2235,725L2307,668Z" fill="#c84891" stroke="#c84891" stroke-width="1.51"/><path d="M2235,-44L2186,73L2309,-14Z" fill="#cd7faa" stroke="#cd7faa" stroke-width="1.51"/><path d="M2196,386L2131,563L2314,458Z" fill="#cb5e98" stroke="#cb5e98" stroke-width="1.51"/><path d="M2218,905L2143,1015L2306,1014Z" fill="#ba1d88" stroke="#ba1d88" stroke-width="1.51"/><path d="M2178,1350L2221,1506L2286,1462Z" fill="#8b0179" stroke="#8b0179" stroke-width="1.51"/><path d="M2178,1350L2079,1505L2221,1506Z" fill="#8e017a" stroke="#8e017a" stroke-width="1.51"/><path d="M2143,1015L1990,1125L2233,1204Z" fill="#b30f82" stroke="#b30f82" stroke-width="1.51"/><path d="M2061,1366L2178,1350L2233,1204Z" fill="#9e017c" stroke="#9e017c" stroke-width="1.51"/><path d="M1996,814L2218,905L2235,725Z" fill="#c8348d" stroke="#c8348d" stroke-width="1.51"/><path d="M2037,688L1996,814L2235,725Z" fill="#d03d8f" stroke="#d03d8f" stroke-width="1.51"/><path d="M2131,563L2037,688L2235,725Z" fill="#ce4892" stroke="#ce4892" stroke-width="1.51"/><path d="M2205,-209L2010,-77L2235,-44Z" fill="#d486b1" stroke="#d486b1" stroke-width="1.51"/><path d="M2010,-77L2186,73L2235,-44Z" fill="#d482ac" stroke="#d482ac" stroke-width="1.51"/><path d="M1990,1125L2061,1366L2233,1204Z" fill="#a9017d" stroke="#a9017d" stroke-width="1.51"/><path d="M2061,1366L2079,1505L2178,1350Z" fill="#97017b" stroke="#97017b" stroke-width="1.51"/><path d="M2032,76L2141,261L2186,73Z" fill="#d57aa4" stroke="#d57aa4" stroke-width="1.51"/><path d="M2010,-77L2032,76L2186,73Z" fill="#d881ab" stroke="#d881ab" stroke-width="1.51"/><path d="M2038,378L2131,563L2196,386Z" fill="#d1629a" stroke="#d1629a" stroke-width="1.51"/><path d="M2079,1505L2137,1606L2221,1506Z" fill="#870078" stroke="#870078" stroke-width="1.51"/><path d="M1996,814L2143,1015L2218,905Z" fill="#c5288b" stroke="#c5288b" stroke-width="1.51"/><path d="M1720,1593L1559,1672L1861,1586Z" fill="#981781" stroke="#981781" stroke-width="1.51"/><path d="M2032,76L2010,223L2141,261Z" fill="#d878a1" stroke="#d878a1" stroke-width="1.51"/><path d="M2141,261L2038,378L2196,386Z" fill="#d26b9c" stroke="#d26b9c" stroke-width="1.51"/><path d="M1987,-205L2010,-77L2205,-209Z" fill="#db8bb3" stroke="#db8bb3" stroke-width="1.51"/><path d="M2023,1029L1990,1125L2143,1015Z" fill="#bd1886" stroke="#bd1886" stroke-width="1.51"/><path d="M1996,814L2023,1029L2143,1015Z" fill="#c7238b" stroke="#c7238b" stroke-width="1.51"/><path d="M2038,378L1994,549L2131,563Z" fill="#d65f99" stroke="#d65f99" stroke-width="1.51"/><path d="M2079,1505L2017,1575L2137,1606Z" fill="#890078" stroke="#890078" stroke-width="1.51"/><path d="M2010,223L2038,378L2141,261Z" fill="#d7719e" stroke="#d7719e" stroke-width="1.51"/><path d="M1994,549L2037,688L2131,563Z" fill="#d55195" stroke="#d55195" stroke-width="1.51"/><path d="M1996,814L1876,902L2023,1029Z" fill="#ce2d8e" stroke="#ce2d8e" stroke-width="1.51"/><path d="M1876,902L1887,993L2023,1029Z" fill="#cc268e" stroke="#cc268e" stroke-width="1.51"/><path d="M1990,1125L1870,1304L2061,1366Z" fill="#ad0a80" stroke="#ad0a80" stroke-width="1.51"/><path d="M2061,1366L1830,1496L2079,1505Z" fill="#98077d" stroke="#98077d" stroke-width="1.51"/><path d="M1830,1496L2017,1575L2079,1505Z" fill="#92067c" stroke="#92067c" stroke-width="1.51"/><path d="M1930,1121L1870,1304L1990,1125Z" fill="#b81283" stroke="#b81283" stroke-width="1.51"/><path d="M1921,95L2010,223L2032,76Z" fill="#dd7ea7" stroke="#dd7ea7" stroke-width="1.51"/><path d="M1994,549L1915,600L2037,688Z" fill="#d95397" stroke="#d95397" stroke-width="1.51"/><path d="M1846,429L1994,549L2038,378Z" fill="#dc679e" stroke="#dc679e" stroke-width="1.51"/><path d="M1870,1304L1830,1496L2061,1366Z" fill="#a30d80" stroke="#a30d80" stroke-width="1.51"/><path d="M1874,-49L1921,95L2010,-77Z" fill="#e189b1" stroke="#e189b1" stroke-width="1.51"/><path d="M1830,1496L1861,1586L2017,1575Z" fill="#940c7d" stroke="#940c7d" stroke-width="1.51"/><path d="M2010,-77L1921,95L2032,76Z" fill="#de84ad" stroke="#de84ad" stroke-width="1.51"/><path d="M1855,723L1996,814L2037,688Z" fill="#d74293" stroke="#d74293" stroke-width="1.51"/><path d="M2010,223L1829,311L2038,378Z" fill="#dd74a1" stroke="#dd74a1" stroke-width="1.51"/><path d="M1829,311L1846,429L2038,378Z" fill="#df70a1" stroke="#df70a1" stroke-width="1.51"/><path d="M1915,600L1855,723L2037,688Z" fill="#db4d96" stroke="#db4d96" stroke-width="1.51"/><path d="M1987,-205L1924,-206L2010,-77Z" fill="#e08eb7" stroke="#e08eb7" stroke-width="1.51"/><path d="M1930,1121L1990,1125L2023,1029Z" fill="#be1986" stroke="#be1986" stroke-width="1.51"/><path d="M1887,993L1930,1121L2023,1029Z" fill="#c41f8a" stroke="#c41f8a" stroke-width="1.51"/><path d="M1924,-206L1874,-49L2010,-77Z" fill="#e38db5" stroke="#e38db5" stroke-width="1.51"/><path d="M1921,95L1829,311L2010,223Z" fill="#e07da5" stroke="#e07da5" stroke-width="1.51"/><path d="M1846,429L1915,600L1994,549Z" fill="#de609c" stroke="#de609c" stroke-width="1.51"/><path d="M1855,723L1876,902L1996,814Z" fill="#d73c93" stroke="#d73c93" stroke-width="1.51"/><path d="M1846,429L1694,533L1915,600Z" fill="#e465a0" stroke="#e465a0" stroke-width="1.51"/><path d="M1874,-49L1747,112L1921,95Z" fill="#e689b0" stroke="#e689b0" stroke-width="1.51"/><path d="M1747,112L1829,311L1921,95Z" fill="#e682aa" stroke="#e682aa" stroke-width="1.51"/><path d="M1738,-179L1874,-49L1924,-206Z" fill="#e893ba" stroke="#e893ba" stroke-width="1.51"/><path d="M1887,993L1772,1161L1930,1121Z" fill="#c5208a" stroke="#c5208a" stroke-width="1.51"/><path d="M1772,1161L1870,1304L1930,1121Z" fill="#bb1585" stroke="#bb1585" stroke-width="1.51"/><path d="M1855,723L1735,848L1876,902Z" fill="#db3f96" stroke="#db3f96" stroke-width="1.51"/><path d="M1742,1459L1830,1496L1870,1304Z" fill="#a61483" stroke="#a61483" stroke-width="1.51"/><path d="M1747,112L1758,302L1829,311Z" fill="#e880a8" stroke="#e880a8" stroke-width="1.51"/><path d="M1774,732L1735,848L1855,723Z" fill="#e14698" stroke="#e14698" stroke-width="1.51"/><path d="M1729,1342L1742,1459L1870,1304Z" fill="#ae1884" stroke="#ae1884" stroke-width="1.51"/><path d="M1735,994L1772,1161L1887,993Z" fill="#cd278e" stroke="#cd278e" stroke-width="1.51"/><path d="M1774,732L1855,723L1915,600Z" fill="#e04e98" stroke="#e04e98" stroke-width="1.51"/><path d="M1694,533L1774,732L1915,600Z" fill="#e4599c" stroke="#e4599c" stroke-width="1.51"/><path d="M1720,-72L1747,112L1874,-49Z" fill="#eb8eb6" stroke="#eb8eb6" stroke-width="1.51"/><path d="M1738,-179L1720,-72L1874,-49Z" fill="#ec93ba" stroke="#ec93ba" stroke-width="1.51"/><path d="M1876,902L1735,994L1887,993Z" fill="#d32c92" stroke="#d32c92" stroke-width="1.51"/><path d="M1733,424L1694,533L1846,429Z" fill="#e86ea4" stroke="#e86ea4" stroke-width="1.51"/><path d="M1772,1161L1729,1342L1870,1304Z" fill="#b81886" stroke="#b81886" stroke-width="1.51"/><path d="M1735,848L1735,994L1876,902Z" fill="#d93594" stroke="#d93594" stroke-width="1.51"/><path d="M1829,311L1733,424L1846,429Z" fill="#e572a4" stroke="#e572a4" stroke-width="1.51"/><path d="M1830,1496L1720,1593L1861,1586Z" fill="#991280" stroke="#991280" stroke-width="1.51"/><path d="M1758,302L1733,424L1829,311Z" fill="#e877a6" stroke="#e877a6" stroke-width="1.51"/><path d="M1252,1569L932,1630L1559,1672Z" fill="#a73989" stroke="#a73989" stroke-width="1.51"/><path d="M1742,1459L1720,1593L1830,1496Z" fill="#9f1583" stroke="#9f1583" stroke-width="1.51"/><path d="M1417,1600L1252,1569L1559,1672Z" fill="#a42e86" stroke="#a42e86" stroke-width="1.51"/><path d="M1537,1010L1587,1207L1735,994Z" fill="#d43192" stroke="#d43192" stroke-width="1.51"/><path d="M1720,-72L1551,83L1747,112Z" fill="#f190b7" stroke="#f190b7" stroke-width="1.51"/><path d="M1747,112L1581,282L1758,302Z" fill="#ed84ab" stroke="#ed84ab" stroke-width="1.51"/><path d="M1735,994L1587,1207L1772,1161Z" fill="#cc268e" stroke="#cc268e" stroke-width="1.51"/><path d="M1587,1207L1729,1342L1772,1161Z" fill="#c11e89" stroke="#c11e89" stroke-width="1.51"/><path d="M1694,533L1572,594L1774,732Z" fill="#eb5ea0" stroke="#eb5ea0" stroke-width="1.51"/><path d="M1572,594L1552,687L1774,732Z" fill="#ec5a9f" stroke="#ec5a9f" stroke-width="1.51"/><path d="M1552,687L1735,848L1774,732Z" fill="#e74c9b" stroke="#e74c9b" stroke-width="1.51"/><path d="M1735,848L1595,919L1735,994Z" fill="#df3998" stroke="#df3998" stroke-width="1.51"/><path d="M1621,408L1733,424L1758,302Z" fill="#ec77a7" stroke="#ec77a7" stroke-width="1.51"/><path d="M1553,-40L1551,83L1720,-72Z" fill="#f396bb" stroke="#f396bb" stroke-width="1.51"/><path d="M1551,83L1581,282L1747,112Z" fill="#f18cb0" stroke="#f18cb0" stroke-width="1.51"/><path d="M1581,282L1621,408L1758,302Z" fill="#ee7eaa" stroke="#ee7eaa" stroke-width="1.51"/><path d="M1604,-180L1720,-72L1738,-179Z" fill="#f199bf" stroke="#f199bf" stroke-width="1.51"/><path d="M1729,1342L1570,1437L1742,1459Z" fill="#af1c87" stroke="#af1c87" stroke-width="1.51"/><path d="M1570,1437L1720,1593L1742,1459Z" fill="#a71b86" stroke="#a71b86" stroke-width="1.51"/><path d="M1587,1207L1552,1329L1729,1342Z" fill="#be248a" stroke="#be248a" stroke-width="1.51"/><path d="M1621,408L1694,533L1733,424Z" fill="#ec71a6" stroke="#ec71a6" stroke-width="1.51"/><path d="M1552,687L1595,919L1735,848Z" fill="#e7499b" stroke="#e7499b" stroke-width="1.51"/><path d="M1595,919L1537,1010L1735,994Z" fill="#de3797" stroke="#de3797" stroke-width="1.51"/><path d="M1552,1329L1570,1437L1729,1342Z" fill="#b62388" stroke="#b62388" stroke-width="1.51"/><path d="M1570,1437L1559,1672L1720,1593Z" fill="#a21f85" stroke="#a21f85" stroke-width="1.51"/><path d="M1604,-180L1553,-40L1720,-72Z" fill="#f49abe" stroke="#f49abe" stroke-width="1.51"/><path d="M1621,408L1572,594L1694,533Z" fill="#ee6ea5" stroke="#ee6ea5" stroke-width="1.51"/><path d="M1083,1573L932,1630L1252,1569Z" fill="#ab468e" stroke="#ab468e" stroke-width="1.51"/><path d="M1435,717L1430,902L1552,687Z" fill="#ee589e" stroke="#ee589e" stroke-width="1.51"/><path d="M1462,1458L1417,1600L1559,1672Z" fill="#a52a86" stroke="#a52a86" stroke-width="1.51"/><path d="M1462,1458L1559,1672L1570,1437Z" fill="#a92787" stroke="#a92787" stroke-width="1.51"/><path d="M1375,383L1473,622L1572,594Z" fill="#f274a6" stroke="#f274a6" stroke-width="1.51"/><path d="M1551,83L1478,113L1581,282Z" fill="#f490b2" stroke="#f490b2" stroke-width="1.51"/><path d="M1478,113L1472,270L1581,282Z" fill="#f48eae" stroke="#f48eae" stroke-width="1.51"/><path d="M1537,1010L1427,1170L1587,1207Z" fill="#d23490" stroke="#d23490" stroke-width="1.51"/><path d="M1552,687L1430,902L1595,919Z" fill="#e94e9c" stroke="#e94e9c" stroke-width="1.51"/><path d="M1335,-224L1426,-154L1604,-180Z" fill="#faa7c4" stroke="#faa7c4" stroke-width="1.51"/><path d="M1375,383L1572,594L1621,408Z" fill="#f179a9" stroke="#f179a9" stroke-width="1.51"/><path d="M1581,282L1472,270L1621,408Z" fill="#f284ab" stroke="#f284ab" stroke-width="1.51"/><path d="M1472,270L1375,383L1621,408Z" fill="#f384ac" stroke="#f384ac" stroke-width="1.51"/><path d="M1426,-154L1553,-40L1604,-180Z" fill="#f7a0c0" stroke="#f7a0c0" stroke-width="1.51"/><path d="M1430,902L1537,1010L1595,919Z" fill="#e3429a" stroke="#e3429a" stroke-width="1.51"/><path d="M1430,902L1449,993L1537,1010Z" fill="#e3439a" stroke="#e3439a" stroke-width="1.51"/><path d="M1473,622L1552,687L1572,594Z" fill="#f065a2" stroke="#f065a2" stroke-width="1.51"/><path d="M1427,1170L1552,1329L1587,1207Z" fill="#c72d8c" stroke="#c72d8c" stroke-width="1.51"/><path d="M1552,1329L1462,1458L1570,1437Z" fill="#b42a8a" stroke="#b42a8a" stroke-width="1.51"/><path d="M1449,993L1427,1170L1537,1010Z" fill="#da3d95" stroke="#da3d95" stroke-width="1.51"/><path d="M1414,1374L1462,1458L1552,1329Z" fill="#b82e8b" stroke="#b82e8b" stroke-width="1.51"/><path d="M1478,113L1551,83L1553,-40Z" fill="#f597b8" stroke="#f597b8" stroke-width="1.51"/><path d="M1427,1170L1414,1374L1552,1329Z" fill="#c3318c" stroke="#c3318c" stroke-width="1.51"/><path d="M1375,-51L1478,113L1553,-40Z" fill="#f89cbb" stroke="#f89cbb" stroke-width="1.51"/><path d="M1426,-154L1375,-51L1553,-40Z" fill="#f9a2bf" stroke="#f9a2bf" stroke-width="1.51"/><path d="M1473,622L1435,717L1552,687Z" fill="#f162a1" stroke="#f162a1" stroke-width="1.51"/><path d="M797,-183L967,-176L1115,-211Z" fill="#ffc4cf" stroke="#ffc4cf" stroke-width="1.51"/><path d="M1269,1292L1414,1374L1427,1170Z" fill="#c8388e" stroke="#c8388e" stroke-width="1.51"/><path d="M1279,841L1430,902L1435,717Z" fill="#ee599e" stroke="#ee599e" stroke-width="1.51"/><path d="M1319,716L1279,841L1435,717Z" fill="#f3619f" stroke="#f3619f" stroke-width="1.51"/><path d="M1301,1120L1427,1170L1449,993Z" fill="#da4094" stroke="#da4094" stroke-width="1.51"/><path d="M1320,1483L1417,1600L1462,1458Z" fill="#ae3189" stroke="#ae3189" stroke-width="1.51"/><path d="M1313,110L1238,246L1472,270Z" fill="#f998b1" stroke="#f998b1" stroke-width="1.51"/><path d="M1375,383L1244,524L1473,622Z" fill="#f67da8" stroke="#f67da8" stroke-width="1.51"/><path d="M1313,110L1472,270L1478,113Z" fill="#f896b2" stroke="#f896b2" stroke-width="1.51"/><path d="M1375,-51L1313,110L1478,113Z" fill="#f99db9" stroke="#f99db9" stroke-width="1.51"/><path d="M1323,-31L1313,110L1375,-51Z" fill="#fba3bd" stroke="#fba3bd" stroke-width="1.51"/><path d="M1319,716L1435,717L1473,622Z" fill="#f465a1" stroke="#f465a1" stroke-width="1.51"/><path d="M1244,524L1319,716L1473,622Z" fill="#f671a4" stroke="#f671a4" stroke-width="1.51"/><path d="M1238,246L1375,383L1472,270Z" fill="#f88fae" stroke="#f88fae" stroke-width="1.51"/><path d="M1297,988L1301,1120L1449,993Z" fill="#e14798" stroke="#e14798" stroke-width="1.51"/><path d="M1414,1374L1320,1483L1462,1458Z" fill="#b5338b" stroke="#b5338b" stroke-width="1.51"/><path d="M1430,902L1297,988L1449,993Z" fill="#e7499b" stroke="#e7499b" stroke-width="1.51"/><path d="M1261,405L1244,524L1375,383Z" fill="#f987ac" stroke="#f987ac" stroke-width="1.51"/><path d="M1301,1120L1269,1292L1427,1170Z" fill="#d23d8f" stroke="#d23d8f" stroke-width="1.51"/><path d="M1279,841L1297,988L1430,902Z" fill="#eb529d" stroke="#eb529d" stroke-width="1.51"/><path d="M1335,-224L1375,-51L1426,-154Z" fill="#fca8c3" stroke="#fca8c3" stroke-width="1.51"/><path d="M1320,1483L1252,1569L1417,1600Z" fill="#ac3489" stroke="#ac3489" stroke-width="1.51"/><path d="M1269,1292L1320,1483L1414,1374Z" fill="#bd398d" stroke="#bd398d" stroke-width="1.51"/><path d="M1238,246L1261,405L1375,383Z" fill="#fa90ae" stroke="#fa90ae" stroke-width="1.51"/><path d="M1335,-224L1323,-31L1375,-51Z" fill="#fca8c1" stroke="#fca8c1" stroke-width="1.51"/><path d="M1176,-26L1155,74L1313,110Z" fill="#fda8bc" stroke="#fda8bc" stroke-width="1.51"/><path d="M1244,524L1140,606L1319,716Z" fill="#f978a6" stroke="#f978a6" stroke-width="1.51"/><path d="M1269,1292L1101,1442L1320,1483Z" fill="#bd408e" stroke="#bd408e" stroke-width="1.51"/><path d="M1176,-26L1313,110L1323,-31Z" fill="#fda6bd" stroke="#fda6bd" stroke-width="1.51"/><path d="M1176,-26L1323,-31L1335,-224Z" fill="#feabc2" stroke="#feabc2" stroke-width="1.51"/><path d="M1115,-211L1176,-26L1335,-224Z" fill="#ffb2c7" stroke="#ffb2c7" stroke-width="1.51"/><path d="M1279,841L1163,981L1297,988Z" fill="#ec569e" stroke="#ec569e" stroke-width="1.51"/><path d="M1085,1175L1269,1292L1301,1120Z" fill="#d44692" stroke="#d44692" stroke-width="1.51"/><path d="M1297,988L1163,981L1301,1120Z" fill="#e44e99" stroke="#e44e99" stroke-width="1.51"/><path d="M1155,74L1238,246L1313,110Z" fill="#fca1b7" stroke="#fca1b7" stroke-width="1.51"/><path d="M1080,697L1279,841L1319,716Z" fill="#f669a2" stroke="#f669a2" stroke-width="1.51"/><path d="M1101,1442L1252,1569L1320,1483Z" fill="#b43e8d" stroke="#b43e8d" stroke-width="1.51"/><path d="M1140,606L1080,697L1319,716Z" fill="#f876a5" stroke="#f876a5" stroke-width="1.51"/><path d="M1238,246L1165,404L1261,405Z" fill="#fa93af" stroke="#fa93af" stroke-width="1.51"/><path d="M1087,1354L1101,1442L1269,1292Z" fill="#c24891" stroke="#c24891" stroke-width="1.51"/><path d="M1080,697L1111,865L1279,841Z" fill="#f36aa3" stroke="#f36aa3" stroke-width="1.51"/><path d="M1163,981L1085,1175L1301,1120Z" fill="#de5198" stroke="#de5198" stroke-width="1.51"/><path d="M1165,404L1244,524L1261,405Z" fill="#f98bad" stroke="#f98bad" stroke-width="1.51"/><path d="M1111,865L1163,981L1279,841Z" fill="#ee5fa0" stroke="#ee5fa0" stroke-width="1.51"/><path d="M1090,300L1165,404L1238,246Z" fill="#fb9ab1" stroke="#fb9ab1" stroke-width="1.51"/><path d="M1085,1175L1087,1354L1269,1292Z" fill="#cc4a92" stroke="#cc4a92" stroke-width="1.51"/><path d="M1101,1442L1083,1573L1252,1569Z" fill="#b1448e" stroke="#b1448e" stroke-width="1.51"/><path d="M1155,74L1090,300L1238,246Z" fill="#fba2b5" stroke="#fba2b5" stroke-width="1.51"/><path d="M1165,404L1140,606L1244,524Z" fill="#f988ac" stroke="#f988ac" stroke-width="1.51"/><path d="M958,132L1005,237L1155,74Z" fill="#fcadbb" stroke="#fcadbb" stroke-width="1.51"/><path d="M1005,237L1090,300L1155,74Z" fill="#fba7b7" stroke="#fba7b7" stroke-width="1.51"/><path d="M995,1120L1085,1175L1163,981Z" fill="#df599b" stroke="#df599b" stroke-width="1.51"/><path d="M1016,982L995,1120L1163,981Z" fill="#e55f9e" stroke="#e55f9e" stroke-width="1.51"/><path d="M986,468L1140,606L1165,404Z" fill="#fa90af" stroke="#fa90af" stroke-width="1.51"/><path d="M1005,-35L1155,74L1176,-26Z" fill="#fdb1c2" stroke="#fdb1c2" stroke-width="1.51"/><path d="M1115,-211L1005,-35L1176,-26Z" fill="#feb6c7" stroke="#feb6c7" stroke-width="1.51"/><path d="M1085,1175L1025,1334L1087,1354Z" fill="#cb5094" stroke="#cb5094" stroke-width="1.51"/><path d="M1111,865L1016,982L1163,981Z" fill="#ec62a1" stroke="#ec62a1" stroke-width="1.51"/><path d="M1090,300L986,468L1165,404Z" fill="#fa99b2" stroke="#fa99b2" stroke-width="1.51"/><path d="M967,-176L1005,-35L1115,-211Z" fill="#febdcb" stroke="#febdcb" stroke-width="1.51"/><path d="M986,468L957,560L1140,606Z" fill="#fa8faf" stroke="#fa8faf" stroke-width="1.51"/><path d="M1005,-35L958,132L1155,74Z" fill="#fcb2c1" stroke="#fcb2c1" stroke-width="1.51"/><path d="M957,560L1080,697L1140,606Z" fill="#f984aa" stroke="#f984aa" stroke-width="1.51"/><path d="M624,1618L586,1637L932,1630Z" fill="#a95c94" stroke="#a95c94" stroke-width="1.51"/><path d="M927,682L976,913L1080,697Z" fill="#f67aa7" stroke="#f67aa7" stroke-width="1.51"/><path d="M998,1463L1083,1573L1101,1442Z" fill="#b54b91" stroke="#b54b91" stroke-width="1.51"/><path d="M1080,697L976,913L1111,865Z" fill="#f370a5" stroke="#f370a5" stroke-width="1.51"/><path d="M976,913L1016,982L1111,865Z" fill="#ee68a3" stroke="#ee68a3" stroke-width="1.51"/><path d="M957,560L927,682L1080,697Z" fill="#f986ab" stroke="#f986ab" stroke-width="1.51"/><path d="M1025,1334L998,1463L1087,1354Z" fill="#c15093" stroke="#c15093" stroke-width="1.51"/><path d="M1005,237L986,468L1090,300Z" fill="#faa1b5" stroke="#faa1b5" stroke-width="1.51"/><path d="M1087,1354L998,1463L1101,1442Z" fill="#bd4d92" stroke="#bd4d92" stroke-width="1.51"/><path d="M861,379L986,468L1005,237Z" fill="#fba4b6" stroke="#fba4b6" stroke-width="1.51"/><path d="M995,1120L1025,1334L1085,1175Z" fill="#d45595" stroke="#d45595" stroke-width="1.51"/><path d="M998,1463L932,1630L1083,1573Z" fill="#af4d90" stroke="#af4d90" stroke-width="1.51"/><path d="M927,682L883,692L976,913Z" fill="#f77ea9" stroke="#f77ea9" stroke-width="1.51"/><path d="M883,692L824,894L976,913Z" fill="#f37ba8" stroke="#f37ba8" stroke-width="1.51"/><path d="M884,1598L932,1630L998,1463Z" fill="#ae5292" stroke="#ae5292" stroke-width="1.51"/><path d="M841,-30L958,132L1005,-35Z" fill="#fdbbc6" stroke="#fdbbc6" stroke-width="1.51"/><path d="M808,1019L995,1120L1016,982Z" fill="#e567a1" stroke="#e567a1" stroke-width="1.51"/><path d="M995,1120L803,1216L1025,1334Z" fill="#d35c98" stroke="#d35c98" stroke-width="1.51"/><path d="M803,1216L814,1340L1025,1334Z" fill="#cb5e98" stroke="#cb5e98" stroke-width="1.51"/><path d="M862,1444L998,1463L1025,1334Z" fill="#be5595" stroke="#be5595" stroke-width="1.51"/><path d="M814,1340L862,1444L1025,1334Z" fill="#c35a97" stroke="#c35a97" stroke-width="1.51"/><path d="M884,1598L624,1618L932,1630Z" fill="#aa5893" stroke="#aa5893" stroke-width="1.51"/><path d="M817,318L861,379L1005,237Z" fill="#fbacb9" stroke="#fbacb9" stroke-width="1.51"/><path d="M967,-176L841,-30L1005,-35Z" fill="#fec0ca" stroke="#fec0ca" stroke-width="1.51"/><path d="M976,913L808,1019L1016,982Z" fill="#ec6ca5" stroke="#ec6ca5" stroke-width="1.51"/><path d="M841,-30L828,95L958,132Z" fill="#fcbcc4" stroke="#fcbcc4" stroke-width="1.51"/><path d="M862,1444L884,1598L998,1463Z" fill="#b55594" stroke="#b55594" stroke-width="1.51"/><path d="M958,132L817,318L1005,237Z" fill="#fbb0ba" stroke="#fbb0ba" stroke-width="1.51"/><path d="M808,1019L803,1216L995,1120Z" fill="#de679e" stroke="#de679e" stroke-width="1.51"/><path d="M824,894L808,1019L976,913Z" fill="#ee73a7" stroke="#ee73a7" stroke-width="1.51"/><path d="M776,514L957,560L986,468Z" fill="#fa9ab3" stroke="#fa9ab3" stroke-width="1.51"/><path d="M861,379L776,514L986,468Z" fill="#faa2b5" stroke="#faa2b5" stroke-width="1.51"/><path d="M828,95L817,318L958,132Z" fill="#fbb6be" stroke="#fbb6be" stroke-width="1.51"/><path d="M797,-183L841,-30L967,-176Z" fill="#fdc6cf" stroke="#fdc6cf" stroke-width="1.51"/><path d="M883,692L927,682L957,560Z" fill="#f98aad" stroke="#f98aad" stroke-width="1.51"/><path d="M776,514L883,692L957,560Z" fill="#fa94b0" stroke="#fa94b0" stroke-width="1.51"/><path d="M708,233L817,318L828,95Z" fill="#fcb8bd" stroke="#fcb8bd" stroke-width="1.51"/><path d="M660,685L824,894L883,692Z" fill="#f887ac" stroke="#f887ac" stroke-width="1.51"/><path d="M776,514L660,685L883,692Z" fill="#fa95b0" stroke="#fa95b0" stroke-width="1.51"/><path d="M862,1444L715,1439L884,1598Z" fill="#b65b96" stroke="#b65b96" stroke-width="1.51"/><path d="M715,1439L624,1618L884,1598Z" fill="#b05d96" stroke="#b05d96" stroke-width="1.51"/><path d="M129,-213L334,-137L582,-172Z" fill="#fedfdb" stroke="#fedfdb" stroke-width="1.51"/><path d="M582,-172L690,-144L797,-183Z" fill="#fed1d3" stroke="#fed1d3" stroke-width="1.51"/><path d="M660,685L647,903L824,894Z" fill="#f585ac" stroke="#f585ac" stroke-width="1.51"/><path d="M797,-183L695,-78L841,-30Z" fill="#fec9ce" stroke="#fec9ce" stroke-width="1.51"/><path d="M704,369L776,514L861,379Z" fill="#fba9b8" stroke="#fba9b8" stroke-width="1.51"/><path d="M814,1340L715,1439L862,1444Z" fill="#bf5f98" stroke="#bf5f98" stroke-width="1.51"/><path d="M691,1016L803,1216L808,1019Z" fill="#e26fa2" stroke="#e26fa2" stroke-width="1.51"/><path d="M817,318L704,369L861,379Z" fill="#fbadb9" stroke="#fbadb9" stroke-width="1.51"/><path d="M691,1016L626,1167L803,1216Z" fill="#dd6fa0" stroke="#dd6fa0" stroke-width="1.51"/><path d="M803,1216L699,1314L814,1340Z" fill="#cd649a" stroke="#cd649a" stroke-width="1.51"/><path d="M691,1016L808,1019L824,894Z" fill="#ec75a7" stroke="#ec75a7" stroke-width="1.51"/><path d="M662,133L708,233L828,95Z" fill="#fcbec1" stroke="#fcbec1" stroke-width="1.51"/><path d="M695,-78L662,133L828,95Z" fill="#fdc4c7" stroke="#fdc4c7" stroke-width="1.51"/><path d="M695,-78L828,95L841,-30Z" fill="#fdc4ca" stroke="#fdc4ca" stroke-width="1.51"/><path d="M690,-144L695,-78L797,-183Z" fill="#feced0" stroke="#feced0" stroke-width="1.51"/><path d="M647,903L691,1016L824,894Z" fill="#ef7ba9" stroke="#ef7ba9" stroke-width="1.51"/><path d="M699,1314L715,1439L814,1340Z" fill="#c4639a" stroke="#c4639a" stroke-width="1.51"/><path d="M708,233L704,369L817,318Z" fill="#fcb4bb" stroke="#fcb4bb" stroke-width="1.51"/><path d="M638,521L660,685L776,514Z" fill="#fa9eb4" stroke="#fa9eb4" stroke-width="1.51"/><path d="M626,1167L699,1314L803,1216Z" fill="#d3699b" stroke="#d3699b" stroke-width="1.51"/><path d="M704,369L638,521L776,514Z" fill="#fba9b8" stroke="#fba9b8" stroke-width="1.51"/><path d="M554,873L647,903L660,685Z" fill="#f58aad" stroke="#f58aad" stroke-width="1.51"/><path d="M555,708L554,873L660,685Z" fill="#f991af" stroke="#f991af" stroke-width="1.51"/><path d="M561,-56L662,133L695,-78Z" fill="#fdcbcc" stroke="#fdcbcc" stroke-width="1.51"/><path d="M626,1167L585,1179L699,1314Z" fill="#d56d9d" stroke="#d56d9d" stroke-width="1.51"/><path d="M531,289L704,369L708,233Z" fill="#fcb9bd" stroke="#fcb9bd" stroke-width="1.51"/><path d="M484,1421L624,1618L715,1439Z" fill="#b76699" stroke="#b76699" stroke-width="1.51"/><path d="M699,1314L524,1346L715,1439Z" fill="#c5689b" stroke="#c5689b" stroke-width="1.51"/><path d="M524,1346L484,1421L715,1439Z" fill="#c16b9b" stroke="#c16b9b" stroke-width="1.51"/><path d="M481,442L638,521L704,369Z" fill="#fbafba" stroke="#fbafba" stroke-width="1.51"/><path d="M662,133L531,289L708,233Z" fill="#fcc0bf" stroke="#fcc0bf" stroke-width="1.51"/><path d="M638,521L554,544L660,685Z" fill="#fba1b4" stroke="#fba1b4" stroke-width="1.51"/><path d="M585,1179L524,1346L699,1314Z" fill="#cf6e9d" stroke="#cf6e9d" stroke-width="1.51"/><path d="M531,289L481,442L704,369Z" fill="#fcb7bc" stroke="#fcb7bc" stroke-width="1.51"/><path d="M487,1006L626,1167L691,1016Z" fill="#e579a5" stroke="#e579a5" stroke-width="1.51"/><path d="M690,-144L582,-172L695,-78Z" fill="#fdd0d1" stroke="#fdd0d1" stroke-width="1.51"/><path d="M582,-172L561,-56L695,-78Z" fill="#fed2d1" stroke="#fed2d1" stroke-width="1.51"/><path d="M561,-56L478,66L662,133Z" fill="#fdccca" stroke="#fdccca" stroke-width="1.51"/><path d="M647,903L487,1006L691,1016Z" fill="#ee7eaa" stroke="#ee7eaa" stroke-width="1.51"/><path d="M484,1421L586,1637L624,1618Z" fill="#b16698" stroke="#b16698" stroke-width="1.51"/><path d="M487,1006L585,1179L626,1167Z" fill="#e077a3" stroke="#e077a3" stroke-width="1.51"/><path d="M481,442L554,544L638,521Z" fill="#fbadb9" stroke="#fbadb9" stroke-width="1.51"/><path d="M554,873L487,1006L647,903Z" fill="#f184ac" stroke="#f184ac" stroke-width="1.51"/><path d="M554,544L555,708L660,685Z" fill="#fb9cb2" stroke="#fb9cb2" stroke-width="1.51"/><path d="M478,66L531,289L662,133Z" fill="#fdc6c3" stroke="#fdc6c3" stroke-width="1.51"/><path d="M-227,-216L-89,-193L129,-213Z" fill="#ffedea" stroke="#ffedea" stroke-width="1.51"/><path d="M484,1421L388,1516L586,1637Z" fill="#b56b9a" stroke="#b56b9a" stroke-width="1.51"/><path d="M423,1126L422,1349L524,1346Z" fill="#d074a0" stroke="#d074a0" stroke-width="1.51"/><path d="M478,66L434,273L531,289Z" fill="#fcc7c2" stroke="#fcc7c2" stroke-width="1.51"/><path d="M418,687L554,873L555,708Z" fill="#f995b0" stroke="#f995b0" stroke-width="1.51"/><path d="M554,544L426,617L555,708Z" fill="#fba2b4" stroke="#fba2b4" stroke-width="1.51"/><path d="M379,-67L561,-56L582,-172Z" fill="#fdd6d2" stroke="#fdd6d2" stroke-width="1.51"/><path d="M423,1126L524,1346L585,1179Z" fill="#d6749f" stroke="#d6749f" stroke-width="1.51"/><path d="M487,1006L423,1126L585,1179Z" fill="#e17ba5" stroke="#e17ba5" stroke-width="1.51"/><path d="M388,1516L353,1619L586,1637Z" fill="#ad6a9a" stroke="#ad6a9a" stroke-width="1.51"/><path d="M334,-137L379,-67L582,-172Z" fill="#fddad5" stroke="#fddad5" stroke-width="1.51"/><path d="M195,1589L31,1635L353,1619Z" fill="#ac72a2" stroke="#ac72a2" stroke-width="1.51"/><path d="M432,415L481,442L531,289Z" fill="#fcbabd" stroke="#fcbabd" stroke-width="1.51"/><path d="M418,687L343,825L554,873Z" fill="#f895b1" stroke="#f895b1" stroke-width="1.51"/><path d="M426,617L418,687L555,708Z" fill="#fb9fb3" stroke="#fb9fb3" stroke-width="1.51"/><path d="M379,-67L478,66L561,-56Z" fill="#fdd4cf" stroke="#fdd4cf" stroke-width="1.51"/><path d="M343,825L487,1006L554,873Z" fill="#f28bae" stroke="#f28bae" stroke-width="1.51"/><path d="M481,442L426,617L554,544Z" fill="#fcacb8" stroke="#fcacb8" stroke-width="1.51"/><path d="M434,273L432,415L531,289Z" fill="#fcbfbf" stroke="#fcbfbf" stroke-width="1.51"/><path d="M336,83L434,273L478,66Z" fill="#fdccc8" stroke="#fdccc8" stroke-width="1.51"/><path d="M343,825L382,1029L487,1006Z" fill="#f089af" stroke="#f089af" stroke-width="1.51"/><path d="M422,1349L484,1421L524,1346Z" fill="#c5709d" stroke="#c5709d" stroke-width="1.51"/><path d="M379,-67L336,83L478,66Z" fill="#fdd4cf" stroke="#fdd4cf" stroke-width="1.51"/><path d="M432,415L426,617L481,442Z" fill="#fbb2bc" stroke="#fbb2bc" stroke-width="1.51"/><path d="M382,1029L423,1126L487,1006Z" fill="#e681aa" stroke="#e681aa" stroke-width="1.51"/><path d="M245,526L426,617L432,415Z" fill="#fcb2bd" stroke="#fcb2bd" stroke-width="1.51"/><path d="M422,1349L388,1516L484,1421Z" fill="#bf709e" stroke="#bf709e" stroke-width="1.51"/><path d="M129,-213L174,-161L334,-137Z" fill="#fee3e0" stroke="#fee3e0" stroke-width="1.51"/><path d="M181,1512L388,1516L422,1349Z" fill="#bc72a2" stroke="#bc72a2" stroke-width="1.51"/><path d="M188,1265L422,1349L423,1126Z" fill="#d479a4" stroke="#d479a4" stroke-width="1.51"/><path d="M181,1192L188,1265L423,1126Z" fill="#da7fa8" stroke="#da7fa8" stroke-width="1.51"/><path d="M264,273L206,462L432,415Z" fill="#fcc0c3" stroke="#fcc0c3" stroke-width="1.51"/><path d="M206,462L245,526L432,415Z" fill="#fcbac2" stroke="#fcbac2" stroke-width="1.51"/><path d="M264,273L432,415L434,273Z" fill="#fdc3c2" stroke="#fdc3c2" stroke-width="1.51"/><path d="M336,83L264,273L434,273Z" fill="#fdcbc7" stroke="#fdcbc7" stroke-width="1.51"/><path d="M188,1265L181,1512L422,1349Z" fill="#c578a5" stroke="#c578a5" stroke-width="1.51"/><path d="M213,712L418,687L426,617Z" fill="#fca3b7" stroke="#fca3b7" stroke-width="1.51"/><path d="M245,526L213,712L426,617Z" fill="#fdabbb" stroke="#fdabbb" stroke-width="1.51"/><path d="M213,712L343,825L418,687Z" fill="#fb9eb6" stroke="#fb9eb6" stroke-width="1.51"/><path d="M382,1029L223,1035L423,1126Z" fill="#e684ac" stroke="#e684ac" stroke-width="1.51"/><path d="M223,1035L181,1192L423,1126Z" fill="#e183ab" stroke="#e183ab" stroke-width="1.51"/><path d="M343,825L224,844L382,1029Z" fill="#f391b3" stroke="#f391b3" stroke-width="1.51"/><path d="M224,844L223,1035L382,1029Z" fill="#f08cb3" stroke="#f08cb3" stroke-width="1.51"/><path d="M182,-49L336,83L379,-67Z" fill="#fdd9d5" stroke="#fdd9d5" stroke-width="1.51"/><path d="M195,1589L353,1619L388,1516Z" fill="#b06f9f" stroke="#b06f9f" stroke-width="1.51"/><path d="M181,1512L195,1589L388,1516Z" fill="#b472a1" stroke="#b472a1" stroke-width="1.51"/><path d="M182,132L264,273L336,83Z" fill="#fdd1cc" stroke="#fdd1cc" stroke-width="1.51"/><path d="M334,-137L182,-49L379,-67Z" fill="#fedcd9" stroke="#fedcd9" stroke-width="1.51"/><path d="M213,712L224,844L343,825Z" fill="#f99bb7" stroke="#f99bb7" stroke-width="1.51"/><path d="M182,-49L182,132L336,83Z" fill="#fdd8d4" stroke="#fdd8d4" stroke-width="1.51"/><path d="M174,-161L182,-49L334,-137Z" fill="#fee0dc" stroke="#fee0dc" stroke-width="1.51"/><path d="M182,-49L126,107L182,132Z" fill="#fddad6" stroke="#fddad6" stroke-width="1.51"/><path d="M53,1490L181,1512L188,1265Z" fill="#c07aa9" stroke="#c07aa9" stroke-width="1.51"/><path d="M117,604L135,681L213,712Z" fill="#fdabbf" stroke="#fdabbf" stroke-width="1.51"/><path d="M69,1040L223,1035L224,844Z" fill="#f090b7" stroke="#f090b7" stroke-width="1.51"/><path d="M117,604L213,712L245,526Z" fill="#fdafc0" stroke="#fdafc0" stroke-width="1.51"/><path d="M182,132L55,307L264,273Z" fill="#fdd0cc" stroke="#fdd0cc" stroke-width="1.51"/><path d="M55,307L100,403L264,273Z" fill="#fdcacb" stroke="#fdcacb" stroke-width="1.51"/><path d="M100,403L206,462L264,273Z" fill="#fdc4c7" stroke="#fdc4c7" stroke-width="1.51"/><path d="M26,1297L53,1490L188,1265Z" fill="#c97fab" stroke="#c97fab" stroke-width="1.51"/><path d="M69,1040L181,1192L223,1035Z" fill="#e589b1" stroke="#e589b1" stroke-width="1.51"/><path d="M57,832L69,1040L224,844Z" fill="#f497ba" stroke="#f497ba" stroke-width="1.51"/><path d="M206,462L117,604L245,526Z" fill="#fdb8c3" stroke="#fdb8c3" stroke-width="1.51"/><path d="M69,1040L58,1165L181,1192Z" fill="#e088b1" stroke="#e088b1" stroke-width="1.51"/><path d="M135,681L57,832L213,712Z" fill="#fca4bd" stroke="#fca4bd" stroke-width="1.51"/><path d="M213,712L57,832L224,844Z" fill="#f99ebb" stroke="#f99ebb" stroke-width="1.51"/><path d="M126,107L55,307L182,132Z" fill="#fdd4d0" stroke="#fdd4d0" stroke-width="1.51"/><path d="M100,403L117,604L206,462Z" fill="#fdbdc7" stroke="#fdbdc7" stroke-width="1.51"/><path d="M174,-161L73,-75L182,-49Z" fill="#fee2df" stroke="#fee2df" stroke-width="1.51"/><path d="M26,1297L-16,1353L53,1490Z" fill="#c580ac" stroke="#c580ac" stroke-width="1.51"/><path d="M73,-75L126,107L182,-49Z" fill="#fddfdb" stroke="#fddfdb" stroke-width="1.51"/><path d="M181,1512L53,1490L195,1589Z" fill="#b576a6" stroke="#b576a6" stroke-width="1.51"/><path d="M53,1490L31,1635L195,1589Z" fill="#b076a7" stroke="#b076a7" stroke-width="1.51"/><path d="M181,1192L58,1165L188,1265Z" fill="#d982ab" stroke="#d982ab" stroke-width="1.51"/><path d="M58,1165L26,1297L188,1265Z" fill="#d582ac" stroke="#d582ac" stroke-width="1.51"/><path d="M-39,215L55,307L126,107Z" fill="#fdd6d1" stroke="#fdd6d1" stroke-width="1.51"/><path d="M129,-213L73,-75L174,-161Z" fill="#fee5e2" stroke="#fee5e2" stroke-width="1.51"/><path d="M57,832L-35,882L69,1040Z" fill="#f499bd" stroke="#f499bd" stroke-width="1.51"/><path d="M-22,433L-44,538L100,403Z" fill="#fdc4cc" stroke="#fdc4cc" stroke-width="1.51"/><path d="M100,403L-44,538L117,604Z" fill="#fdbdc8" stroke="#fdbdc8" stroke-width="1.51"/><path d="M-58,129L-39,215L126,107Z" fill="#fed9d6" stroke="#fed9d6" stroke-width="1.51"/><path d="M73,-75L-77,12L126,107Z" fill="#fde0dd" stroke="#fde0dd" stroke-width="1.51"/><path d="M-77,12L-58,129L126,107Z" fill="#fededa" stroke="#fededa" stroke-width="1.51"/><path d="M-89,-193L73,-75L129,-213Z" fill="#fee9e5" stroke="#fee9e5" stroke-width="1.51"/><path d="M117,604L-98,664L135,681Z" fill="#fdb0c3" stroke="#fdb0c3" stroke-width="1.51"/><path d="M-98,664L57,832L135,681Z" fill="#fda9c1" stroke="#fda9c1" stroke-width="1.51"/><path d="M-44,538L-98,664L117,604Z" fill="#feb6c7" stroke="#feb6c7" stroke-width="1.51"/><path d="M55,307L-22,433L100,403Z" fill="#fdc9cc" stroke="#fdc9cc" stroke-width="1.51"/><path d="M-98,664L-35,882L57,832Z" fill="#faa5c0" stroke="#faa5c0" stroke-width="1.51"/><path d="M-95,1053L-55,1195L58,1165Z" fill="#e18cb4" stroke="#e18cb4" stroke-width="1.51"/><path d="M-55,1195L26,1297L58,1165Z" fill="#d986af" stroke="#d986af" stroke-width="1.51"/><path d="M-95,1053L58,1165L69,1040Z" fill="#e68eb5" stroke="#e68eb5" stroke-width="1.51"/><path d="M-35,882L-95,1053L69,1040Z" fill="#f095bb" stroke="#f095bb" stroke-width="1.51"/><path d="M-89,-193L-77,12L73,-75Z" fill="#fee8e4" stroke="#fee8e4" stroke-width="1.51"/><path d="M-123,1500L31,1635L53,1490Z" fill="#b47baa" stroke="#b47baa" stroke-width="1.51"/><path d="M-123,1500L-107,1631L31,1635Z" fill="#b07baa" stroke="#b07baa" stroke-width="1.51"/><path d="M-16,1353L-123,1500L53,1490Z" fill="#be7ead" stroke="#be7ead" stroke-width="1.51"/><path d="M-39,215L-22,433L55,307Z" fill="#fecfcf" stroke="#fecfcf" stroke-width="1.51"/><path d="M-39,215L-178,249L-22,433Z" fill="#fed3d2" stroke="#fed3d2" stroke-width="1.51"/><path d="M-55,1195L-16,1353L26,1297Z" fill="#d184af" stroke="#d184af" stroke-width="1.51"/><path d="M-179,676L-196,874L-98,664Z" fill="#feadc5" stroke="#feadc5" stroke-width="1.51"/><path d="M-89,-193L-224,-45L-77,12Z" fill="#fee9e6" stroke="#fee9e6" stroke-width="1.51"/><path d="M-196,874L-95,1053L-35,882Z" fill="#f49cc0" stroke="#f49cc0" stroke-width="1.51"/><path d="M-98,664L-196,874L-35,882Z" fill="#faa6c3" stroke="#faa6c3" stroke-width="1.51"/><path d="M-178,249L-267,443L-22,433Z" fill="#fecfd2" stroke="#fecfd2" stroke-width="1.51"/><path d="M-169,534L-44,538L-22,433Z" fill="#fec3cd" stroke="#fec3cd" stroke-width="1.51"/><path d="M-204,1428L-123,1500L-16,1353Z" fill="#c182b0" stroke="#c182b0" stroke-width="1.51"/><path d="M-185,1301L-204,1428L-16,1353Z" fill="#c985b1" stroke="#c985b1" stroke-width="1.51"/><path d="M-55,1195L-185,1301L-16,1353Z" fill="#d286b1" stroke="#d286b1" stroke-width="1.51"/><path d="M-267,443L-169,534L-22,433Z" fill="#fec8d0" stroke="#fec8d0" stroke-width="1.51"/><path d="M-95,1053L-169,1179L-55,1195Z" fill="#e18eb6" stroke="#e18eb6" stroke-width="1.51"/><path d="M-169,534L-98,664L-44,538Z" fill="#febcca" stroke="#febcca" stroke-width="1.51"/><path d="M-58,129L-178,249L-39,215Z" fill="#fddad6" stroke="#fddad6" stroke-width="1.51"/><path d="M-169,1179L-185,1301L-55,1195Z" fill="#d88ab3" stroke="#d88ab3" stroke-width="1.51"/><path d="M-77,12L-201,128L-58,129Z" fill="#fee0dd" stroke="#fee0dd" stroke-width="1.51"/><path d="M-201,128L-178,249L-58,129Z" fill="#fdddd9" stroke="#fdddd9" stroke-width="1.51"/><path d="M-123,1500L-210,1574L-107,1631Z" fill="#b27dad" stroke="#b27dad" stroke-width="1.51"/><path d="M-169,534L-179,676L-98,664Z" fill="#ffb8c9" stroke="#ffb8c9" stroke-width="1.51"/><path d="M-196,874L-254,1040L-95,1053Z" fill="#f19ac0" stroke="#f19ac0" stroke-width="1.51"/><path d="M-227,-216L-224,-45L-89,-193Z" fill="#ffeeeb" stroke="#ffeeeb" stroke-width="1.51"/><path d="M-224,-45L-201,128L-77,12Z" fill="#fee5e2" stroke="#fee5e2" stroke-width="1.51"/><path d="M-254,1040L-169,1179L-95,1053Z" fill="#e793ba" stroke="#e793ba" stroke-width="1.51"/><path d="M-204,1428L-210,1574L-123,1500Z" fill="#b981af" stroke="#b981af" stroke-width="1.51"/><path d="M-254,1040L-185,1301L-169,1179Z" fill="#de8fb6" stroke="#de8fb6" stroke-width="1.51"/><path d="M-267,443L-179,676L-169,534Z" fill="#ffc1ce" stroke="#ffc1ce" stroke-width="1.51"/><path d="M-267,443L-196,874L-179,676Z" fill="#ffb6c9" stroke="#ffb6c9" stroke-width="1.51"/><path d="M-201,128L-267,443L-178,249Z" fill="#fed9d6" stroke="#fed9d6" stroke-width="1.51"/><path d="M-267,443L-254,1040L-196,874Z" fill="#fcacc6" stroke="#fcacc6" stroke-width="1.51"/><path d="M-254,1040L-204,1428L-185,1301Z" fill="#d68bb4" stroke="#d68bb4" stroke-width="1.51"/><path d="M-224,-45L-267,443L-201,128Z" fill="#fedfdb" stroke="#fedfdb" stroke-width="1.51"/><path d="M-254,1040L-210,1574L-204,1428Z" fill="#cb88b3" stroke="#cb88b3" stroke-width="1.51"/><path d="M-227,-216L-267,443L-224,-45Z" fill="#fee6e2" stroke="#fee6e2" stroke-width="1.51"/></svg>